%TF.GenerationSoftware,KiCad,Pcbnew,8.0.3*%
%TF.CreationDate,2025-04-01T20:28:11+03:00*%
%TF.ProjectId,DST-2,4453542d-322e-46b6-9963-61645f706362,rev?*%
%TF.SameCoordinates,Original*%
%TF.FileFunction,Soldermask,Bot*%
%TF.FilePolarity,Negative*%
%FSLAX46Y46*%
G04 Gerber Fmt 4.6, Leading zero omitted, Abs format (unit mm)*
G04 Created by KiCad (PCBNEW 8.0.3) date 2025-04-01 20:28:11*
%MOMM*%
%LPD*%
G01*
G04 APERTURE LIST*
G04 Aperture macros list*
%AMRoundRect*
0 Rectangle with rounded corners*
0 $1 Rounding radius*
0 $2 $3 $4 $5 $6 $7 $8 $9 X,Y pos of 4 corners*
0 Add a 4 corners polygon primitive as box body*
4,1,4,$2,$3,$4,$5,$6,$7,$8,$9,$2,$3,0*
0 Add four circle primitives for the rounded corners*
1,1,$1+$1,$2,$3*
1,1,$1+$1,$4,$5*
1,1,$1+$1,$6,$7*
1,1,$1+$1,$8,$9*
0 Add four rect primitives between the rounded corners*
20,1,$1+$1,$2,$3,$4,$5,0*
20,1,$1+$1,$4,$5,$6,$7,0*
20,1,$1+$1,$6,$7,$8,$9,0*
20,1,$1+$1,$8,$9,$2,$3,0*%
G04 Aperture macros list end*
%ADD10R,1.600000X1.600000*%
%ADD11O,1.600000X1.600000*%
%ADD12R,4.500000X2.000000*%
%ADD13O,4.000000X2.000000*%
%ADD14O,2.000000X4.000000*%
%ADD15RoundRect,0.250000X-0.725000X0.600000X-0.725000X-0.600000X0.725000X-0.600000X0.725000X0.600000X0*%
%ADD16O,1.950000X1.700000*%
%ADD17RoundRect,0.250000X0.600000X0.750000X-0.600000X0.750000X-0.600000X-0.750000X0.600000X-0.750000X0*%
%ADD18O,1.700000X2.000000*%
%ADD19C,0.800000*%
%ADD20C,5.400000*%
%ADD21O,1.500000X1.050000*%
%ADD22R,1.500000X1.050000*%
%ADD23RoundRect,0.250000X0.725000X-0.600000X0.725000X0.600000X-0.725000X0.600000X-0.725000X-0.600000X0*%
%ADD24O,1.050000X1.500000*%
%ADD25R,1.050000X1.500000*%
%ADD26O,1.700000X1.950000*%
%ADD27RoundRect,0.250000X0.600000X0.725000X-0.600000X0.725000X-0.600000X-0.725000X0.600000X-0.725000X0*%
G04 APERTURE END LIST*
D10*
%TO.C,D1*%
X182775000Y-121340000D03*
D11*
X182775000Y-128960000D03*
%TD*%
D10*
%TO.C,D2*%
X170425000Y-59840000D03*
D11*
X170425000Y-67460000D03*
%TD*%
D12*
%TO.C,J1*%
X124000000Y-55100000D03*
D13*
X124000000Y-48900000D03*
D14*
X119300000Y-51900000D03*
%TD*%
D15*
%TO.C,J5*%
X196206891Y-61043109D03*
D16*
X196206891Y-63543109D03*
X196206891Y-66043109D03*
%TD*%
D15*
%TO.C,J5*%
X146231891Y-61043109D03*
D16*
X146231891Y-63543109D03*
X146231891Y-66043109D03*
%TD*%
D10*
%TO.C,D1*%
X182775000Y-71340000D03*
D11*
X182775000Y-78960000D03*
%TD*%
D10*
%TO.C,D3*%
X167775000Y-117460000D03*
D11*
X167775000Y-109840000D03*
%TD*%
D12*
%TO.C,J1*%
X174600000Y-105100000D03*
D13*
X174600000Y-98900000D03*
D14*
X169900000Y-101900000D03*
%TD*%
D17*
%TO.C,J3*%
X136900000Y-86650000D03*
D18*
X134400000Y-86650000D03*
%TD*%
D19*
%TO.C,REF\u002A\u002A*%
X144875000Y-133300000D03*
X144281891Y-134731891D03*
X144281891Y-131868109D03*
X142850000Y-135325000D03*
D20*
X142850000Y-133300000D03*
D19*
X142850000Y-131275000D03*
X141418109Y-134731891D03*
X141418109Y-131868109D03*
X140825000Y-133300000D03*
%TD*%
D15*
%TO.C,J4*%
X146231891Y-72343109D03*
D16*
X146231891Y-74843109D03*
X146231891Y-77343109D03*
%TD*%
D21*
%TO.C,Q3*%
X110800000Y-110550000D03*
X110800000Y-111820000D03*
D22*
X110800000Y-113090000D03*
%TD*%
D20*
%TO.C,8*%
X156325000Y-46800000D03*
%TD*%
D19*
%TO.C,REF\u002A\u002A7*%
X104325000Y-46800000D03*
X104918109Y-45368109D03*
X104918109Y-48231891D03*
X106350000Y-44775000D03*
D20*
X106350000Y-46800000D03*
D19*
X106350000Y-48825000D03*
X107781891Y-45368109D03*
X107781891Y-48231891D03*
X108375000Y-46800000D03*
%TD*%
D23*
%TO.C,J6*%
X153006891Y-77343109D03*
D16*
X153006891Y-74843109D03*
X153006891Y-72343109D03*
%TD*%
%TO.C,J5*%
X146231891Y-116043109D03*
X146231891Y-113543109D03*
D15*
X146231891Y-111043109D03*
%TD*%
D10*
%TO.C,D2*%
X120450000Y-59840000D03*
D11*
X120450000Y-67460000D03*
%TD*%
D20*
%TO.C,2*%
X156325000Y-96800000D03*
%TD*%
D19*
%TO.C,REF\u002A\u002A8*%
X140825000Y-46800000D03*
X141418109Y-45368109D03*
X141418109Y-48231891D03*
X142850000Y-44775000D03*
D20*
X142850000Y-46800000D03*
D19*
X142850000Y-48825000D03*
X144281891Y-45368109D03*
X144281891Y-48231891D03*
X144875000Y-46800000D03*
%TD*%
D18*
%TO.C,J3*%
X134400000Y-136650000D03*
D17*
X136900000Y-136650000D03*
%TD*%
D11*
%TO.C,D3*%
X117800000Y-109840000D03*
D10*
X117800000Y-117460000D03*
%TD*%
D19*
%TO.C,REF\u002A\u002A*%
X108375000Y-96800000D03*
X107781891Y-98231891D03*
X107781891Y-95368109D03*
X106350000Y-98825000D03*
D20*
X106350000Y-96800000D03*
D19*
X106350000Y-94775000D03*
X104918109Y-98231891D03*
X104918109Y-95368109D03*
X104325000Y-96800000D03*
%TD*%
D24*
%TO.C,Q2*%
X120540000Y-122250000D03*
X119270000Y-122250000D03*
D25*
X118000000Y-122250000D03*
%TD*%
D23*
%TO.C,J6*%
X103031891Y-77343109D03*
D16*
X103031891Y-74843109D03*
X103031891Y-72343109D03*
%TD*%
D19*
%TO.C,REF\u002A\u002A*%
X144875000Y-96800000D03*
X144281891Y-98231891D03*
X144281891Y-95368109D03*
X142850000Y-98825000D03*
D20*
X142850000Y-96800000D03*
D19*
X142850000Y-94775000D03*
X141418109Y-98231891D03*
X141418109Y-95368109D03*
X140825000Y-96800000D03*
%TD*%
D22*
%TO.C,Q3*%
X110800000Y-63090000D03*
D21*
X110800000Y-61820000D03*
X110800000Y-60550000D03*
%TD*%
D19*
%TO.C,REF\u002A\u002A6*%
X140825000Y-83300000D03*
X141418109Y-81868109D03*
X141418109Y-84731891D03*
X142850000Y-81275000D03*
D20*
X142850000Y-83300000D03*
D19*
X142850000Y-85325000D03*
X144281891Y-81868109D03*
X144281891Y-84731891D03*
X144875000Y-83300000D03*
%TD*%
D20*
%TO.C,*%
X106350000Y-96800000D03*
%TD*%
D17*
%TO.C,J3*%
X186875000Y-86650000D03*
D18*
X184375000Y-86650000D03*
%TD*%
D22*
%TO.C,Q3*%
X160775000Y-63090000D03*
D21*
X160775000Y-61820000D03*
X160775000Y-60550000D03*
%TD*%
D10*
%TO.C,D1*%
X132800000Y-71340000D03*
D11*
X132800000Y-78960000D03*
%TD*%
D20*
%TO.C,3*%
X192825000Y-96800000D03*
%TD*%
D19*
%TO.C,REF\u002A\u002A9*%
X154300000Y-83300000D03*
X154893109Y-81868109D03*
X154893109Y-84731891D03*
X156325000Y-81275000D03*
D20*
X156325000Y-83300000D03*
D19*
X156325000Y-85325000D03*
X157756891Y-81868109D03*
X157756891Y-84731891D03*
X158350000Y-83300000D03*
%TD*%
D26*
%TO.C,J2*%
X112300000Y-136650000D03*
X114800000Y-136650000D03*
X117300000Y-136650000D03*
D27*
X119800000Y-136650000D03*
%TD*%
D25*
%TO.C,Q2*%
X118000000Y-72250000D03*
D24*
X119270000Y-72250000D03*
X120540000Y-72250000D03*
%TD*%
D20*
%TO.C,*%
X106350000Y-133300000D03*
%TD*%
D23*
%TO.C,J6*%
X153006891Y-127343109D03*
D16*
X153006891Y-124843109D03*
X153006891Y-122343109D03*
%TD*%
D24*
%TO.C,Q1*%
X118000000Y-126350000D03*
X119270000Y-126350000D03*
D25*
X120540000Y-126350000D03*
%TD*%
D10*
%TO.C,D3*%
X167775000Y-67460000D03*
D11*
X167775000Y-59840000D03*
%TD*%
D25*
%TO.C,Q1*%
X170515000Y-76350000D03*
D24*
X169245000Y-76350000D03*
X167975000Y-76350000D03*
%TD*%
D19*
%TO.C,REF\u002A\u002A3*%
X154300000Y-96800000D03*
X154893109Y-95368109D03*
X154893109Y-98231891D03*
X156325000Y-94775000D03*
D20*
X156325000Y-96800000D03*
D19*
X156325000Y-98825000D03*
X157756891Y-95368109D03*
X157756891Y-98231891D03*
X158350000Y-96800000D03*
%TD*%
D11*
%TO.C,D2*%
X120450000Y-117460000D03*
D10*
X120450000Y-109840000D03*
%TD*%
D20*
%TO.C,6*%
X142850000Y-46800000D03*
%TD*%
D19*
%TO.C,REF\u002A\u002A4*%
X190800000Y-96800000D03*
X191393109Y-95368109D03*
X191393109Y-98231891D03*
X192825000Y-94775000D03*
D20*
X192825000Y-96800000D03*
D19*
X192825000Y-98825000D03*
X194256891Y-95368109D03*
X194256891Y-98231891D03*
X194850000Y-96800000D03*
%TD*%
D25*
%TO.C,Q2*%
X167975000Y-122250000D03*
D24*
X169245000Y-122250000D03*
X170515000Y-122250000D03*
%TD*%
D25*
%TO.C,Q1*%
X170515000Y-126350000D03*
D24*
X169245000Y-126350000D03*
X167975000Y-126350000D03*
%TD*%
D27*
%TO.C,J2*%
X169775000Y-136650000D03*
D26*
X167275000Y-136650000D03*
X164775000Y-136650000D03*
X162275000Y-136650000D03*
%TD*%
D12*
%TO.C,J1*%
X174575000Y-55100000D03*
D13*
X174575000Y-48900000D03*
D14*
X169875000Y-51900000D03*
%TD*%
%TO.C,J1*%
X119900000Y-101900000D03*
D13*
X124600000Y-98900000D03*
D12*
X124600000Y-105100000D03*
%TD*%
D15*
%TO.C,J4*%
X196206891Y-72343109D03*
D16*
X196206891Y-74843109D03*
X196206891Y-77343109D03*
%TD*%
D27*
%TO.C,J2*%
X119800000Y-86650000D03*
D26*
X117300000Y-86650000D03*
X114800000Y-86650000D03*
X112300000Y-86650000D03*
%TD*%
D15*
%TO.C,J4*%
X196206891Y-122343109D03*
D16*
X196206891Y-124843109D03*
X196206891Y-127343109D03*
%TD*%
D20*
%TO.C,1*%
X156325000Y-133300000D03*
%TD*%
D19*
%TO.C,REF\u002A\u002A11*%
X154300000Y-46800000D03*
X154893109Y-45368109D03*
X154893109Y-48231891D03*
X156325000Y-44775000D03*
D20*
X156325000Y-46800000D03*
D19*
X156325000Y-48825000D03*
X157756891Y-45368109D03*
X157756891Y-48231891D03*
X158350000Y-46800000D03*
%TD*%
D17*
%TO.C,J3*%
X186875000Y-136650000D03*
D18*
X184375000Y-136650000D03*
%TD*%
D19*
%TO.C,REF\u002A\u002A1*%
X154300000Y-133300000D03*
X154893109Y-131868109D03*
X154893109Y-134731891D03*
X156325000Y-131275000D03*
D20*
X156325000Y-133300000D03*
D19*
X156325000Y-135325000D03*
X157756891Y-131868109D03*
X157756891Y-134731891D03*
X158350000Y-133300000D03*
%TD*%
%TO.C,REF\u002A\u002A12*%
X190800000Y-46800000D03*
X191393109Y-45368109D03*
X191393109Y-48231891D03*
X192825000Y-44775000D03*
D20*
X192825000Y-46800000D03*
D19*
X192825000Y-48825000D03*
X194256891Y-45368109D03*
X194256891Y-48231891D03*
X194850000Y-46800000D03*
%TD*%
D20*
%TO.C,4*%
X106350000Y-83300000D03*
%TD*%
D19*
%TO.C,REF\u002A\u002A2*%
X190800000Y-133300000D03*
X191393109Y-131868109D03*
X191393109Y-134731891D03*
X192825000Y-131275000D03*
D20*
X192825000Y-133300000D03*
D19*
X192825000Y-135325000D03*
X194256891Y-131868109D03*
X194256891Y-134731891D03*
X194850000Y-133300000D03*
%TD*%
D22*
%TO.C,Q3*%
X160775000Y-113090000D03*
D21*
X160775000Y-111820000D03*
X160775000Y-110550000D03*
%TD*%
D15*
%TO.C,J5*%
X196206891Y-111043109D03*
D16*
X196206891Y-113543109D03*
X196206891Y-116043109D03*
%TD*%
D19*
%TO.C,REF\u002A\u002A10*%
X190800000Y-83300000D03*
X191393109Y-81868109D03*
X191393109Y-84731891D03*
X192825000Y-81275000D03*
D20*
X192825000Y-83300000D03*
D19*
X192825000Y-85325000D03*
X194256891Y-81868109D03*
X194256891Y-84731891D03*
X194850000Y-83300000D03*
%TD*%
D16*
%TO.C,J6*%
X103031891Y-122343109D03*
X103031891Y-124843109D03*
D23*
X103031891Y-127343109D03*
%TD*%
D27*
%TO.C,J2*%
X169775000Y-86650000D03*
D26*
X167275000Y-86650000D03*
X164775000Y-86650000D03*
X162275000Y-86650000D03*
%TD*%
D25*
%TO.C,Q2*%
X167975000Y-72250000D03*
D24*
X169245000Y-72250000D03*
X170515000Y-72250000D03*
%TD*%
D10*
%TO.C,D2*%
X170425000Y-109840000D03*
D11*
X170425000Y-117460000D03*
%TD*%
D10*
%TO.C,D3*%
X117800000Y-67460000D03*
D11*
X117800000Y-59840000D03*
%TD*%
D19*
%TO.C,REF\u002A\u002A5*%
X104325000Y-83300000D03*
X104918109Y-81868109D03*
X104918109Y-84731891D03*
X106350000Y-81275000D03*
D20*
X106350000Y-83300000D03*
D19*
X106350000Y-85325000D03*
X107781891Y-81868109D03*
X107781891Y-84731891D03*
X108375000Y-83300000D03*
%TD*%
D20*
%TO.C,9*%
X192825000Y-46800000D03*
%TD*%
D16*
%TO.C,J4*%
X146231891Y-127343109D03*
X146231891Y-124843109D03*
D15*
X146231891Y-122343109D03*
%TD*%
D20*
%TO.C,5*%
X106350000Y-46800000D03*
%TD*%
D19*
%TO.C,REF\u002A\u002A*%
X108375000Y-133300000D03*
X107781891Y-134731891D03*
X107781891Y-131868109D03*
X106350000Y-135325000D03*
D20*
X106350000Y-133300000D03*
D19*
X106350000Y-131275000D03*
X104918109Y-134731891D03*
X104918109Y-131868109D03*
X104325000Y-133300000D03*
%TD*%
D20*
%TO.C,*%
X142850000Y-96800000D03*
%TD*%
D11*
%TO.C,D1*%
X132800000Y-128960000D03*
D10*
X132800000Y-121340000D03*
%TD*%
D25*
%TO.C,Q1*%
X120540000Y-76350000D03*
D24*
X119270000Y-76350000D03*
X118000000Y-76350000D03*
%TD*%
D20*
%TO.C,7*%
X156325000Y-83300000D03*
%TD*%
M02*
