%TF.GenerationSoftware,KiCad,Pcbnew,8.0.3*%
%TF.CreationDate,2025-04-01T20:28:10+03:00*%
%TF.ProjectId,DST-2,4453542d-322e-46b6-9963-61645f706362,rev?*%
%TF.SameCoordinates,Original*%
%TF.FileFunction,Paste,Top*%
%TF.FilePolarity,Positive*%
%FSLAX46Y46*%
G04 Gerber Fmt 4.6, Leading zero omitted, Abs format (unit mm)*
G04 Created by KiCad (PCBNEW 8.0.3) date 2025-04-01 20:28:10*
%MOMM*%
%LPD*%
G01*
G04 APERTURE LIST*
G04 Aperture macros list*
%AMRoundRect*
0 Rectangle with rounded corners*
0 $1 Rounding radius*
0 $2 $3 $4 $5 $6 $7 $8 $9 X,Y pos of 4 corners*
0 Add a 4 corners polygon primitive as box body*
4,1,4,$2,$3,$4,$5,$6,$7,$8,$9,$2,$3,0*
0 Add four circle primitives for the rounded corners*
1,1,$1+$1,$2,$3*
1,1,$1+$1,$4,$5*
1,1,$1+$1,$6,$7*
1,1,$1+$1,$8,$9*
0 Add four rect primitives between the rounded corners*
20,1,$1+$1,$2,$3,$4,$5,0*
20,1,$1+$1,$4,$5,$6,$7,0*
20,1,$1+$1,$6,$7,$8,$9,0*
20,1,$1+$1,$8,$9,$2,$3,0*%
G04 Aperture macros list end*
%ADD10RoundRect,0.237500X0.237500X-0.250000X0.237500X0.250000X-0.237500X0.250000X-0.237500X-0.250000X0*%
%ADD11RoundRect,0.237500X-0.250000X-0.237500X0.250000X-0.237500X0.250000X0.237500X-0.250000X0.237500X0*%
%ADD12RoundRect,0.237500X0.237500X-0.300000X0.237500X0.300000X-0.237500X0.300000X-0.237500X-0.300000X0*%
%ADD13RoundRect,0.237500X-0.237500X0.250000X-0.237500X-0.250000X0.237500X-0.250000X0.237500X0.250000X0*%
%ADD14RoundRect,0.237500X0.250000X0.237500X-0.250000X0.237500X-0.250000X-0.237500X0.250000X-0.237500X0*%
%ADD15RoundRect,0.237500X-0.237500X0.300000X-0.237500X-0.300000X0.237500X-0.300000X0.237500X0.300000X0*%
%ADD16RoundRect,0.237500X0.300000X0.237500X-0.300000X0.237500X-0.300000X-0.237500X0.300000X-0.237500X0*%
%ADD17R,3.100000X1.600000*%
G04 APERTURE END LIST*
D10*
%TO.C,R5*%
X123100000Y-121737500D03*
X123100000Y-123562500D03*
%TD*%
D11*
%TO.C,R13*%
X115512500Y-117750000D03*
X113687500Y-117750000D03*
%TD*%
D10*
%TO.C,R6*%
X165475000Y-73462500D03*
X165475000Y-71637500D03*
%TD*%
D12*
%TO.C,C4*%
X174875000Y-123512500D03*
X174875000Y-121787500D03*
%TD*%
D11*
%TO.C,R13*%
X163662500Y-67750000D03*
X165487500Y-67750000D03*
%TD*%
D10*
%TO.C,R8*%
X180275000Y-73562500D03*
X180275000Y-71737500D03*
%TD*%
D13*
%TO.C,R1*%
X113700000Y-128162500D03*
X113700000Y-126337500D03*
%TD*%
D10*
%TO.C,R15*%
X105500000Y-63862500D03*
X105500000Y-62037500D03*
%TD*%
%TO.C,R7*%
X128500000Y-121737500D03*
X128500000Y-123562500D03*
%TD*%
D14*
%TO.C,R12*%
X165487500Y-115850000D03*
X163662500Y-115850000D03*
%TD*%
D15*
%TO.C,C6*%
X140231891Y-123505609D03*
X140231891Y-121780609D03*
%TD*%
D14*
%TO.C,R12*%
X165487500Y-65850000D03*
X163662500Y-65850000D03*
%TD*%
%TO.C,R12*%
X113687500Y-115850000D03*
X115512500Y-115850000D03*
%TD*%
D16*
%TO.C,C10*%
X115462500Y-69550000D03*
X113737500Y-69550000D03*
%TD*%
D15*
%TO.C,C12*%
X161775000Y-76387500D03*
X161775000Y-78112500D03*
%TD*%
D12*
%TO.C,C3*%
X178475000Y-128112500D03*
X178475000Y-126387500D03*
%TD*%
%TO.C,C3*%
X128500000Y-126387500D03*
X128500000Y-128112500D03*
%TD*%
D15*
%TO.C,C8*%
X188406891Y-126380609D03*
X188406891Y-128105609D03*
%TD*%
%TO.C,C5*%
X126700000Y-71787500D03*
X126700000Y-73512500D03*
%TD*%
D13*
%TO.C,R4*%
X180275000Y-76337500D03*
X180275000Y-78162500D03*
%TD*%
D15*
%TO.C,C6*%
X190206891Y-71780609D03*
X190206891Y-73505609D03*
%TD*%
D10*
%TO.C,R5*%
X173075000Y-123562500D03*
X173075000Y-121737500D03*
%TD*%
D15*
%TO.C,C5*%
X176675000Y-121787500D03*
X176675000Y-123512500D03*
%TD*%
%TO.C,C7*%
X135300000Y-128112500D03*
X135300000Y-126387500D03*
%TD*%
D10*
%TO.C,R7*%
X178475000Y-73562500D03*
X178475000Y-71737500D03*
%TD*%
D17*
%TO.C,U1*%
X123955000Y-60340000D03*
X123955000Y-62880000D03*
X123955000Y-65420000D03*
X123955000Y-67960000D03*
X132845000Y-67960000D03*
X132845000Y-65420000D03*
X132845000Y-62880000D03*
X132845000Y-60340000D03*
%TD*%
D12*
%TO.C,C1*%
X165475000Y-128112500D03*
X165475000Y-126387500D03*
%TD*%
D10*
%TO.C,R8*%
X130300000Y-121737500D03*
X130300000Y-123562500D03*
%TD*%
%TO.C,R9*%
X140231891Y-126330609D03*
X140231891Y-128155609D03*
%TD*%
D15*
%TO.C,C9*%
X165475000Y-109587500D03*
X165475000Y-111312500D03*
%TD*%
%TO.C,C9*%
X165475000Y-59587500D03*
X165475000Y-61312500D03*
%TD*%
D12*
%TO.C,C1*%
X115500000Y-78112500D03*
X115500000Y-76387500D03*
%TD*%
D15*
%TO.C,C12*%
X111800000Y-128112500D03*
X111800000Y-126387500D03*
%TD*%
D12*
%TO.C,C4*%
X174875000Y-73512500D03*
X174875000Y-71787500D03*
%TD*%
D15*
%TO.C,C7*%
X185275000Y-76387500D03*
X185275000Y-78112500D03*
%TD*%
D13*
%TO.C,R16*%
X158775000Y-115437500D03*
X158775000Y-117262500D03*
%TD*%
%TO.C,R11*%
X188406891Y-121730609D03*
X188406891Y-123555609D03*
%TD*%
D15*
%TO.C,C6*%
X190206891Y-121780609D03*
X190206891Y-123505609D03*
%TD*%
D13*
%TO.C,R3*%
X126700000Y-76337500D03*
X126700000Y-78162500D03*
%TD*%
D15*
%TO.C,C9*%
X115500000Y-111312500D03*
X115500000Y-109587500D03*
%TD*%
D13*
%TO.C,R16*%
X158775000Y-65437500D03*
X158775000Y-67262500D03*
%TD*%
%TO.C,R14*%
X163675000Y-59537500D03*
X163675000Y-61362500D03*
%TD*%
D12*
%TO.C,C3*%
X128500000Y-78112500D03*
X128500000Y-76387500D03*
%TD*%
%TO.C,C1*%
X165475000Y-78112500D03*
X165475000Y-76387500D03*
%TD*%
D13*
%TO.C,R11*%
X188406891Y-71730609D03*
X188406891Y-73555609D03*
%TD*%
D10*
%TO.C,R9*%
X140231891Y-78155609D03*
X140231891Y-76330609D03*
%TD*%
D15*
%TO.C,C5*%
X176675000Y-71787500D03*
X176675000Y-73512500D03*
%TD*%
D11*
%TO.C,R13*%
X113687500Y-67750000D03*
X115512500Y-67750000D03*
%TD*%
D15*
%TO.C,C8*%
X138431891Y-76380609D03*
X138431891Y-78105609D03*
%TD*%
D13*
%TO.C,R4*%
X180275000Y-126337500D03*
X180275000Y-128162500D03*
%TD*%
%TO.C,R10*%
X185275000Y-71737500D03*
X185275000Y-73562500D03*
%TD*%
D10*
%TO.C,R7*%
X128500000Y-73562500D03*
X128500000Y-71737500D03*
%TD*%
D13*
%TO.C,R11*%
X138431891Y-123555609D03*
X138431891Y-121730609D03*
%TD*%
%TO.C,R10*%
X185275000Y-121737500D03*
X185275000Y-123562500D03*
%TD*%
%TO.C,R3*%
X176675000Y-76337500D03*
X176675000Y-78162500D03*
%TD*%
D16*
%TO.C,C10*%
X113737500Y-119550000D03*
X115462500Y-119550000D03*
%TD*%
D10*
%TO.C,R6*%
X115500000Y-121637500D03*
X115500000Y-123462500D03*
%TD*%
D15*
%TO.C,C2*%
X124900000Y-76387500D03*
X124900000Y-78112500D03*
%TD*%
D12*
%TO.C,C4*%
X124900000Y-121787500D03*
X124900000Y-123512500D03*
%TD*%
D15*
%TO.C,C6*%
X140231891Y-71780609D03*
X140231891Y-73505609D03*
%TD*%
D16*
%TO.C,C10*%
X165437500Y-69550000D03*
X163712500Y-69550000D03*
%TD*%
D10*
%TO.C,R15*%
X155475000Y-63862500D03*
X155475000Y-62037500D03*
%TD*%
%TO.C,R15*%
X105500000Y-112037500D03*
X105500000Y-113862500D03*
%TD*%
D11*
%TO.C,R13*%
X163662500Y-117750000D03*
X165487500Y-117750000D03*
%TD*%
D12*
%TO.C,C1*%
X115500000Y-126387500D03*
X115500000Y-128112500D03*
%TD*%
D10*
%TO.C,R8*%
X180275000Y-123562500D03*
X180275000Y-121737500D03*
%TD*%
D15*
%TO.C,C8*%
X188406891Y-76380609D03*
X188406891Y-78105609D03*
%TD*%
D16*
%TO.C,C10*%
X165437500Y-119550000D03*
X163712500Y-119550000D03*
%TD*%
D17*
%TO.C,U1*%
X173930000Y-60340000D03*
X173930000Y-62880000D03*
X173930000Y-65420000D03*
X173930000Y-67960000D03*
X182820000Y-67960000D03*
X182820000Y-65420000D03*
X182820000Y-62880000D03*
X182820000Y-60340000D03*
%TD*%
D15*
%TO.C,C2*%
X174875000Y-76387500D03*
X174875000Y-78112500D03*
%TD*%
D12*
%TO.C,C4*%
X124900000Y-73512500D03*
X124900000Y-71787500D03*
%TD*%
D13*
%TO.C,R1*%
X163675000Y-76337500D03*
X163675000Y-78162500D03*
%TD*%
D14*
%TO.C,R12*%
X115512500Y-65850000D03*
X113687500Y-65850000D03*
%TD*%
D13*
%TO.C,R14*%
X113700000Y-111362500D03*
X113700000Y-109537500D03*
%TD*%
%TO.C,R10*%
X135300000Y-123562500D03*
X135300000Y-121737500D03*
%TD*%
%TO.C,R14*%
X163675000Y-109537500D03*
X163675000Y-111362500D03*
%TD*%
D10*
%TO.C,R8*%
X130300000Y-73562500D03*
X130300000Y-71737500D03*
%TD*%
%TO.C,R9*%
X190206891Y-78155609D03*
X190206891Y-76330609D03*
%TD*%
D17*
%TO.C,U1*%
X173930000Y-110340000D03*
X173930000Y-112880000D03*
X173930000Y-115420000D03*
X173930000Y-117960000D03*
X182820000Y-117960000D03*
X182820000Y-115420000D03*
X182820000Y-112880000D03*
X182820000Y-110340000D03*
%TD*%
D15*
%TO.C,C8*%
X138431891Y-128105609D03*
X138431891Y-126380609D03*
%TD*%
D10*
%TO.C,R6*%
X165475000Y-123462500D03*
X165475000Y-121637500D03*
%TD*%
D13*
%TO.C,R3*%
X176675000Y-126337500D03*
X176675000Y-128162500D03*
%TD*%
D12*
%TO.C,C11*%
X157175000Y-113812500D03*
X157175000Y-112087500D03*
%TD*%
D13*
%TO.C,R2*%
X123100000Y-76337500D03*
X123100000Y-78162500D03*
%TD*%
D15*
%TO.C,C9*%
X115500000Y-59587500D03*
X115500000Y-61312500D03*
%TD*%
D13*
%TO.C,R2*%
X173075000Y-126337500D03*
X173075000Y-128162500D03*
%TD*%
%TO.C,R16*%
X108800000Y-117262500D03*
X108800000Y-115437500D03*
%TD*%
%TO.C,R4*%
X130300000Y-76337500D03*
X130300000Y-78162500D03*
%TD*%
D17*
%TO.C,U1*%
X132845000Y-110340000D03*
X132845000Y-112880000D03*
X132845000Y-115420000D03*
X132845000Y-117960000D03*
X123955000Y-117960000D03*
X123955000Y-115420000D03*
X123955000Y-112880000D03*
X123955000Y-110340000D03*
%TD*%
D10*
%TO.C,R5*%
X173075000Y-73562500D03*
X173075000Y-71737500D03*
%TD*%
D15*
%TO.C,C12*%
X161775000Y-126387500D03*
X161775000Y-128112500D03*
%TD*%
D13*
%TO.C,R4*%
X130300000Y-128162500D03*
X130300000Y-126337500D03*
%TD*%
D12*
%TO.C,C11*%
X107200000Y-112087500D03*
X107200000Y-113812500D03*
%TD*%
D13*
%TO.C,R14*%
X113700000Y-59537500D03*
X113700000Y-61362500D03*
%TD*%
D15*
%TO.C,C5*%
X126700000Y-123512500D03*
X126700000Y-121787500D03*
%TD*%
D10*
%TO.C,R9*%
X190206891Y-128155609D03*
X190206891Y-126330609D03*
%TD*%
D13*
%TO.C,R10*%
X135300000Y-71737500D03*
X135300000Y-73562500D03*
%TD*%
%TO.C,R11*%
X138431891Y-71730609D03*
X138431891Y-73555609D03*
%TD*%
D12*
%TO.C,C11*%
X157175000Y-63812500D03*
X157175000Y-62087500D03*
%TD*%
D13*
%TO.C,R2*%
X123100000Y-128162500D03*
X123100000Y-126337500D03*
%TD*%
D15*
%TO.C,C2*%
X174875000Y-126387500D03*
X174875000Y-128112500D03*
%TD*%
D13*
%TO.C,R3*%
X126700000Y-128162500D03*
X126700000Y-126337500D03*
%TD*%
%TO.C,R1*%
X163675000Y-126337500D03*
X163675000Y-128162500D03*
%TD*%
D12*
%TO.C,C11*%
X107200000Y-63812500D03*
X107200000Y-62087500D03*
%TD*%
D10*
%TO.C,R5*%
X123100000Y-73562500D03*
X123100000Y-71737500D03*
%TD*%
D13*
%TO.C,R2*%
X173075000Y-76337500D03*
X173075000Y-78162500D03*
%TD*%
D10*
%TO.C,R7*%
X178475000Y-123562500D03*
X178475000Y-121737500D03*
%TD*%
D15*
%TO.C,C7*%
X135300000Y-76387500D03*
X135300000Y-78112500D03*
%TD*%
D10*
%TO.C,R6*%
X115500000Y-73462500D03*
X115500000Y-71637500D03*
%TD*%
D13*
%TO.C,R16*%
X108800000Y-65437500D03*
X108800000Y-67262500D03*
%TD*%
D10*
%TO.C,R15*%
X155475000Y-113862500D03*
X155475000Y-112037500D03*
%TD*%
D15*
%TO.C,C2*%
X124900000Y-128112500D03*
X124900000Y-126387500D03*
%TD*%
%TO.C,C12*%
X111800000Y-76387500D03*
X111800000Y-78112500D03*
%TD*%
%TO.C,C7*%
X185275000Y-126387500D03*
X185275000Y-128112500D03*
%TD*%
D13*
%TO.C,R1*%
X113700000Y-76337500D03*
X113700000Y-78162500D03*
%TD*%
D12*
%TO.C,C3*%
X178475000Y-78112500D03*
X178475000Y-76387500D03*
%TD*%
M02*
