%TF.GenerationSoftware,KiCad,Pcbnew,8.0.3*%
%TF.CreationDate,2025-04-01T20:28:11+03:00*%
%TF.ProjectId,DST-2,4453542d-322e-46b6-9963-61645f706362,rev?*%
%TF.SameCoordinates,Original*%
%TF.FileFunction,Soldermask,Top*%
%TF.FilePolarity,Negative*%
%FSLAX46Y46*%
G04 Gerber Fmt 4.6, Leading zero omitted, Abs format (unit mm)*
G04 Created by KiCad (PCBNEW 8.0.3) date 2025-04-01 20:28:11*
%MOMM*%
%LPD*%
G01*
G04 APERTURE LIST*
G04 Aperture macros list*
%AMRoundRect*
0 Rectangle with rounded corners*
0 $1 Rounding radius*
0 $2 $3 $4 $5 $6 $7 $8 $9 X,Y pos of 4 corners*
0 Add a 4 corners polygon primitive as box body*
4,1,4,$2,$3,$4,$5,$6,$7,$8,$9,$2,$3,0*
0 Add four circle primitives for the rounded corners*
1,1,$1+$1,$2,$3*
1,1,$1+$1,$4,$5*
1,1,$1+$1,$6,$7*
1,1,$1+$1,$8,$9*
0 Add four rect primitives between the rounded corners*
20,1,$1+$1,$2,$3,$4,$5,0*
20,1,$1+$1,$4,$5,$6,$7,0*
20,1,$1+$1,$6,$7,$8,$9,0*
20,1,$1+$1,$8,$9,$2,$3,0*%
G04 Aperture macros list end*
%ADD10R,1.600000X1.600000*%
%ADD11O,1.600000X1.600000*%
%ADD12RoundRect,0.237500X0.237500X-0.250000X0.237500X0.250000X-0.237500X0.250000X-0.237500X-0.250000X0*%
%ADD13RoundRect,0.237500X-0.250000X-0.237500X0.250000X-0.237500X0.250000X0.237500X-0.250000X0.237500X0*%
%ADD14RoundRect,0.237500X0.237500X-0.300000X0.237500X0.300000X-0.237500X0.300000X-0.237500X-0.300000X0*%
%ADD15R,4.500000X2.000000*%
%ADD16O,4.000000X2.000000*%
%ADD17O,2.000000X4.000000*%
%ADD18RoundRect,0.237500X-0.237500X0.250000X-0.237500X-0.250000X0.237500X-0.250000X0.237500X0.250000X0*%
%ADD19RoundRect,0.237500X0.250000X0.237500X-0.250000X0.237500X-0.250000X-0.237500X0.250000X-0.237500X0*%
%ADD20RoundRect,0.237500X-0.237500X0.300000X-0.237500X-0.300000X0.237500X-0.300000X0.237500X0.300000X0*%
%ADD21RoundRect,0.250000X-0.725000X0.600000X-0.725000X-0.600000X0.725000X-0.600000X0.725000X0.600000X0*%
%ADD22O,1.950000X1.700000*%
%ADD23RoundRect,0.237500X0.300000X0.237500X-0.300000X0.237500X-0.300000X-0.237500X0.300000X-0.237500X0*%
%ADD24C,2.000000*%
%ADD25RoundRect,0.250000X0.600000X0.750000X-0.600000X0.750000X-0.600000X-0.750000X0.600000X-0.750000X0*%
%ADD26O,1.700000X2.000000*%
%ADD27R,3.100000X1.600000*%
%ADD28C,0.800000*%
%ADD29C,5.400000*%
%ADD30O,1.500000X1.050000*%
%ADD31R,1.500000X1.050000*%
%ADD32RoundRect,0.250000X0.725000X-0.600000X0.725000X0.600000X-0.725000X0.600000X-0.725000X-0.600000X0*%
%ADD33O,1.050000X1.500000*%
%ADD34R,1.050000X1.500000*%
%ADD35O,1.700000X1.950000*%
%ADD36RoundRect,0.250000X0.600000X0.725000X-0.600000X0.725000X-0.600000X-0.725000X0.600000X-0.725000X0*%
G04 APERTURE END LIST*
D10*
%TO.C,D1*%
X182775000Y-121340000D03*
D11*
X182775000Y-128960000D03*
%TD*%
D12*
%TO.C,R5*%
X123100000Y-121737500D03*
X123100000Y-123562500D03*
%TD*%
D13*
%TO.C,R13*%
X115512500Y-117750000D03*
X113687500Y-117750000D03*
%TD*%
D10*
%TO.C,D2*%
X170425000Y-59840000D03*
D11*
X170425000Y-67460000D03*
%TD*%
D12*
%TO.C,R6*%
X165475000Y-73462500D03*
X165475000Y-71637500D03*
%TD*%
D14*
%TO.C,C4*%
X174875000Y-123512500D03*
X174875000Y-121787500D03*
%TD*%
D13*
%TO.C,R13*%
X163662500Y-67750000D03*
X165487500Y-67750000D03*
%TD*%
D15*
%TO.C,J1*%
X124000000Y-55100000D03*
D16*
X124000000Y-48900000D03*
D17*
X119300000Y-51900000D03*
%TD*%
D12*
%TO.C,R8*%
X180275000Y-73562500D03*
X180275000Y-71737500D03*
%TD*%
D18*
%TO.C,R1*%
X113700000Y-128162500D03*
X113700000Y-126337500D03*
%TD*%
D12*
%TO.C,R15*%
X105500000Y-63862500D03*
X105500000Y-62037500D03*
%TD*%
%TO.C,R7*%
X128500000Y-121737500D03*
X128500000Y-123562500D03*
%TD*%
D19*
%TO.C,R12*%
X165487500Y-115850000D03*
X163662500Y-115850000D03*
%TD*%
D20*
%TO.C,C6*%
X140231891Y-123505609D03*
X140231891Y-121780609D03*
%TD*%
D19*
%TO.C,R12*%
X165487500Y-65850000D03*
X163662500Y-65850000D03*
%TD*%
%TO.C,R12*%
X113687500Y-115850000D03*
X115512500Y-115850000D03*
%TD*%
D21*
%TO.C,J5*%
X196206891Y-61043109D03*
D22*
X196206891Y-63543109D03*
X196206891Y-66043109D03*
%TD*%
D23*
%TO.C,C10*%
X115462500Y-69550000D03*
X113737500Y-69550000D03*
%TD*%
D24*
%TO.C,Out*%
X116731891Y-130843109D03*
%TD*%
D21*
%TO.C,J5*%
X146231891Y-61043109D03*
D22*
X146231891Y-63543109D03*
X146231891Y-66043109D03*
%TD*%
D20*
%TO.C,C12*%
X161775000Y-76387500D03*
X161775000Y-78112500D03*
%TD*%
D14*
%TO.C,C3*%
X178475000Y-128112500D03*
X178475000Y-126387500D03*
%TD*%
%TO.C,C3*%
X128500000Y-126387500D03*
X128500000Y-128112500D03*
%TD*%
D20*
%TO.C,C8*%
X188406891Y-126380609D03*
X188406891Y-128105609D03*
%TD*%
D24*
%TO.C,+4.5v*%
X174206891Y-130843109D03*
%TD*%
D10*
%TO.C,D1*%
X182775000Y-71340000D03*
D11*
X182775000Y-78960000D03*
%TD*%
D20*
%TO.C,C5*%
X126700000Y-71787500D03*
X126700000Y-73512500D03*
%TD*%
D18*
%TO.C,R4*%
X180275000Y-76337500D03*
X180275000Y-78162500D03*
%TD*%
D10*
%TO.C,D3*%
X167775000Y-117460000D03*
D11*
X167775000Y-109840000D03*
%TD*%
D20*
%TO.C,C6*%
X190206891Y-71780609D03*
X190206891Y-73505609D03*
%TD*%
D12*
%TO.C,R5*%
X173075000Y-123562500D03*
X173075000Y-121737500D03*
%TD*%
D20*
%TO.C,C5*%
X176675000Y-121787500D03*
X176675000Y-123512500D03*
%TD*%
D15*
%TO.C,J1*%
X174600000Y-105100000D03*
D16*
X174600000Y-98900000D03*
D17*
X169900000Y-101900000D03*
%TD*%
D25*
%TO.C,J3*%
X136900000Y-86650000D03*
D26*
X134400000Y-86650000D03*
%TD*%
D20*
%TO.C,C7*%
X135300000Y-128112500D03*
X135300000Y-126387500D03*
%TD*%
D12*
%TO.C,R7*%
X178475000Y-73562500D03*
X178475000Y-71737500D03*
%TD*%
D27*
%TO.C,U1*%
X123955000Y-60340000D03*
X123955000Y-62880000D03*
X123955000Y-65420000D03*
X123955000Y-67960000D03*
X132845000Y-67960000D03*
X132845000Y-65420000D03*
X132845000Y-62880000D03*
X132845000Y-60340000D03*
%TD*%
D28*
%TO.C,REF\u002A\u002A*%
X144875000Y-133300000D03*
X144281891Y-134731891D03*
X144281891Y-131868109D03*
X142850000Y-135325000D03*
D29*
X142850000Y-133300000D03*
D28*
X142850000Y-131275000D03*
X141418109Y-134731891D03*
X141418109Y-131868109D03*
X140825000Y-133300000D03*
%TD*%
D14*
%TO.C,C1*%
X165475000Y-128112500D03*
X165475000Y-126387500D03*
%TD*%
D21*
%TO.C,J4*%
X146231891Y-72343109D03*
D22*
X146231891Y-74843109D03*
X146231891Y-77343109D03*
%TD*%
D12*
%TO.C,R8*%
X130300000Y-121737500D03*
X130300000Y-123562500D03*
%TD*%
%TO.C,R9*%
X140231891Y-126330609D03*
X140231891Y-128155609D03*
%TD*%
D20*
%TO.C,C9*%
X165475000Y-109587500D03*
X165475000Y-111312500D03*
%TD*%
%TO.C,C9*%
X165475000Y-59587500D03*
X165475000Y-61312500D03*
%TD*%
D14*
%TO.C,C1*%
X115500000Y-78112500D03*
X115500000Y-76387500D03*
%TD*%
D30*
%TO.C,Q3*%
X110800000Y-110550000D03*
X110800000Y-111820000D03*
D31*
X110800000Y-113090000D03*
%TD*%
D20*
%TO.C,C12*%
X111800000Y-128112500D03*
X111800000Y-126387500D03*
%TD*%
D29*
%TO.C,8*%
X156325000Y-46800000D03*
%TD*%
D14*
%TO.C,C4*%
X174875000Y-73512500D03*
X174875000Y-71787500D03*
%TD*%
D20*
%TO.C,C7*%
X185275000Y-76387500D03*
X185275000Y-78112500D03*
%TD*%
D18*
%TO.C,R16*%
X158775000Y-115437500D03*
X158775000Y-117262500D03*
%TD*%
%TO.C,R11*%
X188406891Y-121730609D03*
X188406891Y-123555609D03*
%TD*%
D20*
%TO.C,C6*%
X190206891Y-121780609D03*
X190206891Y-123505609D03*
%TD*%
D18*
%TO.C,R3*%
X126700000Y-76337500D03*
X126700000Y-78162500D03*
%TD*%
D20*
%TO.C,C9*%
X115500000Y-111312500D03*
X115500000Y-109587500D03*
%TD*%
D18*
%TO.C,R16*%
X158775000Y-65437500D03*
X158775000Y-67262500D03*
%TD*%
%TO.C,R14*%
X163675000Y-59537500D03*
X163675000Y-61362500D03*
%TD*%
D28*
%TO.C,REF\u002A\u002A7*%
X104325000Y-46800000D03*
X104918109Y-45368109D03*
X104918109Y-48231891D03*
X106350000Y-44775000D03*
D29*
X106350000Y-46800000D03*
D28*
X106350000Y-48825000D03*
X107781891Y-45368109D03*
X107781891Y-48231891D03*
X108375000Y-46800000D03*
%TD*%
D14*
%TO.C,C3*%
X128500000Y-78112500D03*
X128500000Y-76387500D03*
%TD*%
%TO.C,C1*%
X165475000Y-78112500D03*
X165475000Y-76387500D03*
%TD*%
D18*
%TO.C,R11*%
X188406891Y-71730609D03*
X188406891Y-73555609D03*
%TD*%
D32*
%TO.C,J6*%
X153006891Y-77343109D03*
D22*
X153006891Y-74843109D03*
X153006891Y-72343109D03*
%TD*%
D12*
%TO.C,R9*%
X140231891Y-78155609D03*
X140231891Y-76330609D03*
%TD*%
D22*
%TO.C,J5*%
X146231891Y-116043109D03*
X146231891Y-113543109D03*
D21*
X146231891Y-111043109D03*
%TD*%
D10*
%TO.C,D2*%
X120450000Y-59840000D03*
D11*
X120450000Y-67460000D03*
%TD*%
D29*
%TO.C,2*%
X156325000Y-96800000D03*
%TD*%
D28*
%TO.C,REF\u002A\u002A8*%
X140825000Y-46800000D03*
X141418109Y-45368109D03*
X141418109Y-48231891D03*
X142850000Y-44775000D03*
D29*
X142850000Y-46800000D03*
D28*
X142850000Y-48825000D03*
X144281891Y-45368109D03*
X144281891Y-48231891D03*
X144875000Y-46800000D03*
%TD*%
D20*
%TO.C,C5*%
X176675000Y-71787500D03*
X176675000Y-73512500D03*
%TD*%
D13*
%TO.C,R13*%
X113687500Y-67750000D03*
X115512500Y-67750000D03*
%TD*%
D20*
%TO.C,C8*%
X138431891Y-76380609D03*
X138431891Y-78105609D03*
%TD*%
D18*
%TO.C,R4*%
X180275000Y-126337500D03*
X180275000Y-128162500D03*
%TD*%
%TO.C,R10*%
X185275000Y-71737500D03*
X185275000Y-73562500D03*
%TD*%
D26*
%TO.C,J3*%
X134400000Y-136650000D03*
D25*
X136900000Y-136650000D03*
%TD*%
D11*
%TO.C,D3*%
X117800000Y-109840000D03*
D10*
X117800000Y-117460000D03*
%TD*%
D28*
%TO.C,REF\u002A\u002A*%
X108375000Y-96800000D03*
X107781891Y-98231891D03*
X107781891Y-95368109D03*
X106350000Y-98825000D03*
D29*
X106350000Y-96800000D03*
D28*
X106350000Y-94775000D03*
X104918109Y-98231891D03*
X104918109Y-95368109D03*
X104325000Y-96800000D03*
%TD*%
D33*
%TO.C,Q2*%
X120540000Y-122250000D03*
X119270000Y-122250000D03*
D34*
X118000000Y-122250000D03*
%TD*%
D12*
%TO.C,R7*%
X128500000Y-73562500D03*
X128500000Y-71737500D03*
%TD*%
D32*
%TO.C,J6*%
X103031891Y-77343109D03*
D22*
X103031891Y-74843109D03*
X103031891Y-72343109D03*
%TD*%
D24*
%TO.C,+4.5v*%
X124231891Y-130843109D03*
%TD*%
D18*
%TO.C,R11*%
X138431891Y-123555609D03*
X138431891Y-121730609D03*
%TD*%
D28*
%TO.C,REF\u002A\u002A*%
X144875000Y-96800000D03*
X144281891Y-98231891D03*
X144281891Y-95368109D03*
X142850000Y-98825000D03*
D29*
X142850000Y-96800000D03*
D28*
X142850000Y-94775000D03*
X141418109Y-98231891D03*
X141418109Y-95368109D03*
X140825000Y-96800000D03*
%TD*%
D18*
%TO.C,R10*%
X185275000Y-121737500D03*
X185275000Y-123562500D03*
%TD*%
D31*
%TO.C,Q3*%
X110800000Y-63090000D03*
D30*
X110800000Y-61820000D03*
X110800000Y-60550000D03*
%TD*%
D28*
%TO.C,REF\u002A\u002A6*%
X140825000Y-83300000D03*
X141418109Y-81868109D03*
X141418109Y-84731891D03*
X142850000Y-81275000D03*
D29*
X142850000Y-83300000D03*
D28*
X142850000Y-85325000D03*
X144281891Y-81868109D03*
X144281891Y-84731891D03*
X144875000Y-83300000D03*
%TD*%
D18*
%TO.C,R3*%
X176675000Y-76337500D03*
X176675000Y-78162500D03*
%TD*%
D23*
%TO.C,C10*%
X113737500Y-119550000D03*
X115462500Y-119550000D03*
%TD*%
D12*
%TO.C,R6*%
X115500000Y-121637500D03*
X115500000Y-123462500D03*
%TD*%
D29*
%TO.C,*%
X106350000Y-96800000D03*
%TD*%
D20*
%TO.C,C2*%
X124900000Y-76387500D03*
X124900000Y-78112500D03*
%TD*%
D14*
%TO.C,C4*%
X124900000Y-121787500D03*
X124900000Y-123512500D03*
%TD*%
D25*
%TO.C,J3*%
X186875000Y-86650000D03*
D26*
X184375000Y-86650000D03*
%TD*%
D20*
%TO.C,C6*%
X140231891Y-71780609D03*
X140231891Y-73505609D03*
%TD*%
D23*
%TO.C,C10*%
X165437500Y-69550000D03*
X163712500Y-69550000D03*
%TD*%
D31*
%TO.C,Q3*%
X160775000Y-63090000D03*
D30*
X160775000Y-61820000D03*
X160775000Y-60550000D03*
%TD*%
D12*
%TO.C,R15*%
X155475000Y-63862500D03*
X155475000Y-62037500D03*
%TD*%
D10*
%TO.C,D1*%
X132800000Y-71340000D03*
D11*
X132800000Y-78960000D03*
%TD*%
D29*
%TO.C,3*%
X192825000Y-96800000D03*
%TD*%
D28*
%TO.C,REF\u002A\u002A9*%
X154300000Y-83300000D03*
X154893109Y-81868109D03*
X154893109Y-84731891D03*
X156325000Y-81275000D03*
D29*
X156325000Y-83300000D03*
D28*
X156325000Y-85325000D03*
X157756891Y-81868109D03*
X157756891Y-84731891D03*
X158350000Y-83300000D03*
%TD*%
D12*
%TO.C,R15*%
X105500000Y-112037500D03*
X105500000Y-113862500D03*
%TD*%
D13*
%TO.C,R13*%
X163662500Y-117750000D03*
X165487500Y-117750000D03*
%TD*%
D14*
%TO.C,C1*%
X115500000Y-126387500D03*
X115500000Y-128112500D03*
%TD*%
D35*
%TO.C,J2*%
X112300000Y-136650000D03*
X114800000Y-136650000D03*
X117300000Y-136650000D03*
D36*
X119800000Y-136650000D03*
%TD*%
D12*
%TO.C,R8*%
X180275000Y-123562500D03*
X180275000Y-121737500D03*
%TD*%
D34*
%TO.C,Q2*%
X118000000Y-72250000D03*
D33*
X119270000Y-72250000D03*
X120540000Y-72250000D03*
%TD*%
D29*
%TO.C,*%
X106350000Y-133300000D03*
%TD*%
D32*
%TO.C,J6*%
X153006891Y-127343109D03*
D22*
X153006891Y-124843109D03*
X153006891Y-122343109D03*
%TD*%
D20*
%TO.C,C8*%
X188406891Y-76380609D03*
X188406891Y-78105609D03*
%TD*%
D33*
%TO.C,Q1*%
X118000000Y-126350000D03*
X119270000Y-126350000D03*
D34*
X120540000Y-126350000D03*
%TD*%
D10*
%TO.C,D3*%
X167775000Y-67460000D03*
D11*
X167775000Y-59840000D03*
%TD*%
D23*
%TO.C,C10*%
X165437500Y-119550000D03*
X163712500Y-119550000D03*
%TD*%
D34*
%TO.C,Q1*%
X170515000Y-76350000D03*
D33*
X169245000Y-76350000D03*
X167975000Y-76350000D03*
%TD*%
D27*
%TO.C,U1*%
X173930000Y-60340000D03*
X173930000Y-62880000D03*
X173930000Y-65420000D03*
X173930000Y-67960000D03*
X182820000Y-67960000D03*
X182820000Y-65420000D03*
X182820000Y-62880000D03*
X182820000Y-60340000D03*
%TD*%
D20*
%TO.C,C2*%
X174875000Y-76387500D03*
X174875000Y-78112500D03*
%TD*%
D14*
%TO.C,C4*%
X124900000Y-73512500D03*
X124900000Y-71787500D03*
%TD*%
D18*
%TO.C,R1*%
X163675000Y-76337500D03*
X163675000Y-78162500D03*
%TD*%
D19*
%TO.C,R12*%
X115512500Y-65850000D03*
X113687500Y-65850000D03*
%TD*%
D28*
%TO.C,REF\u002A\u002A3*%
X154300000Y-96800000D03*
X154893109Y-95368109D03*
X154893109Y-98231891D03*
X156325000Y-94775000D03*
D29*
X156325000Y-96800000D03*
D28*
X156325000Y-98825000D03*
X157756891Y-95368109D03*
X157756891Y-98231891D03*
X158350000Y-96800000D03*
%TD*%
D18*
%TO.C,R14*%
X113700000Y-111362500D03*
X113700000Y-109537500D03*
%TD*%
D11*
%TO.C,D2*%
X120450000Y-117460000D03*
D10*
X120450000Y-109840000D03*
%TD*%
D29*
%TO.C,6*%
X142850000Y-46800000D03*
%TD*%
D18*
%TO.C,R10*%
X135300000Y-123562500D03*
X135300000Y-121737500D03*
%TD*%
D28*
%TO.C,REF\u002A\u002A4*%
X190800000Y-96800000D03*
X191393109Y-95368109D03*
X191393109Y-98231891D03*
X192825000Y-94775000D03*
D29*
X192825000Y-96800000D03*
D28*
X192825000Y-98825000D03*
X194256891Y-95368109D03*
X194256891Y-98231891D03*
X194850000Y-96800000D03*
%TD*%
D18*
%TO.C,R14*%
X163675000Y-109537500D03*
X163675000Y-111362500D03*
%TD*%
D12*
%TO.C,R8*%
X130300000Y-73562500D03*
X130300000Y-71737500D03*
%TD*%
D34*
%TO.C,Q2*%
X167975000Y-122250000D03*
D33*
X169245000Y-122250000D03*
X170515000Y-122250000D03*
%TD*%
D12*
%TO.C,R9*%
X190206891Y-78155609D03*
X190206891Y-76330609D03*
%TD*%
D27*
%TO.C,U1*%
X173930000Y-110340000D03*
X173930000Y-112880000D03*
X173930000Y-115420000D03*
X173930000Y-117960000D03*
X182820000Y-117960000D03*
X182820000Y-115420000D03*
X182820000Y-112880000D03*
X182820000Y-110340000D03*
%TD*%
D24*
%TO.C,Out*%
X166706891Y-130843109D03*
%TD*%
D34*
%TO.C,Q1*%
X170515000Y-126350000D03*
D33*
X169245000Y-126350000D03*
X167975000Y-126350000D03*
%TD*%
D20*
%TO.C,C8*%
X138431891Y-128105609D03*
X138431891Y-126380609D03*
%TD*%
D36*
%TO.C,J2*%
X169775000Y-136650000D03*
D35*
X167275000Y-136650000D03*
X164775000Y-136650000D03*
X162275000Y-136650000D03*
%TD*%
D15*
%TO.C,J1*%
X174575000Y-55100000D03*
D16*
X174575000Y-48900000D03*
D17*
X169875000Y-51900000D03*
%TD*%
%TO.C,J1*%
X119900000Y-101900000D03*
D16*
X124600000Y-98900000D03*
D15*
X124600000Y-105100000D03*
%TD*%
D24*
%TO.C,In*%
X119831891Y-80843109D03*
%TD*%
D12*
%TO.C,R6*%
X165475000Y-123462500D03*
X165475000Y-121637500D03*
%TD*%
D18*
%TO.C,R3*%
X176675000Y-126337500D03*
X176675000Y-128162500D03*
%TD*%
D14*
%TO.C,C11*%
X157175000Y-113812500D03*
X157175000Y-112087500D03*
%TD*%
D24*
%TO.C,In*%
X169806891Y-80843109D03*
%TD*%
D18*
%TO.C,R2*%
X123100000Y-76337500D03*
X123100000Y-78162500D03*
%TD*%
D20*
%TO.C,C9*%
X115500000Y-59587500D03*
X115500000Y-61312500D03*
%TD*%
D18*
%TO.C,R2*%
X173075000Y-126337500D03*
X173075000Y-128162500D03*
%TD*%
D24*
%TO.C,+4.5v*%
X124231891Y-80843109D03*
%TD*%
D21*
%TO.C,J4*%
X196206891Y-72343109D03*
D22*
X196206891Y-74843109D03*
X196206891Y-77343109D03*
%TD*%
D18*
%TO.C,R16*%
X108800000Y-117262500D03*
X108800000Y-115437500D03*
%TD*%
D36*
%TO.C,J2*%
X119800000Y-86650000D03*
D35*
X117300000Y-86650000D03*
X114800000Y-86650000D03*
X112300000Y-86650000D03*
%TD*%
D21*
%TO.C,J4*%
X196206891Y-122343109D03*
D22*
X196206891Y-124843109D03*
X196206891Y-127343109D03*
%TD*%
D29*
%TO.C,1*%
X156325000Y-133300000D03*
%TD*%
D28*
%TO.C,REF\u002A\u002A11*%
X154300000Y-46800000D03*
X154893109Y-45368109D03*
X154893109Y-48231891D03*
X156325000Y-44775000D03*
D29*
X156325000Y-46800000D03*
D28*
X156325000Y-48825000D03*
X157756891Y-45368109D03*
X157756891Y-48231891D03*
X158350000Y-46800000D03*
%TD*%
D18*
%TO.C,R4*%
X130300000Y-76337500D03*
X130300000Y-78162500D03*
%TD*%
D25*
%TO.C,J3*%
X186875000Y-136650000D03*
D26*
X184375000Y-136650000D03*
%TD*%
D28*
%TO.C,REF\u002A\u002A1*%
X154300000Y-133300000D03*
X154893109Y-131868109D03*
X154893109Y-134731891D03*
X156325000Y-131275000D03*
D29*
X156325000Y-133300000D03*
D28*
X156325000Y-135325000D03*
X157756891Y-131868109D03*
X157756891Y-134731891D03*
X158350000Y-133300000D03*
%TD*%
D27*
%TO.C,U1*%
X132845000Y-110340000D03*
X132845000Y-112880000D03*
X132845000Y-115420000D03*
X132845000Y-117960000D03*
X123955000Y-117960000D03*
X123955000Y-115420000D03*
X123955000Y-112880000D03*
X123955000Y-110340000D03*
%TD*%
D12*
%TO.C,R5*%
X173075000Y-73562500D03*
X173075000Y-71737500D03*
%TD*%
D20*
%TO.C,C12*%
X161775000Y-126387500D03*
X161775000Y-128112500D03*
%TD*%
D18*
%TO.C,R4*%
X130300000Y-128162500D03*
X130300000Y-126337500D03*
%TD*%
D14*
%TO.C,C11*%
X107200000Y-112087500D03*
X107200000Y-113812500D03*
%TD*%
D28*
%TO.C,REF\u002A\u002A12*%
X190800000Y-46800000D03*
X191393109Y-45368109D03*
X191393109Y-48231891D03*
X192825000Y-44775000D03*
D29*
X192825000Y-46800000D03*
D28*
X192825000Y-48825000D03*
X194256891Y-45368109D03*
X194256891Y-48231891D03*
X194850000Y-46800000D03*
%TD*%
D29*
%TO.C,4*%
X106350000Y-83300000D03*
%TD*%
D18*
%TO.C,R14*%
X113700000Y-59537500D03*
X113700000Y-61362500D03*
%TD*%
D20*
%TO.C,C5*%
X126700000Y-123512500D03*
X126700000Y-121787500D03*
%TD*%
D28*
%TO.C,REF\u002A\u002A2*%
X190800000Y-133300000D03*
X191393109Y-131868109D03*
X191393109Y-134731891D03*
X192825000Y-131275000D03*
D29*
X192825000Y-133300000D03*
D28*
X192825000Y-135325000D03*
X194256891Y-131868109D03*
X194256891Y-134731891D03*
X194850000Y-133300000D03*
%TD*%
D31*
%TO.C,Q3*%
X160775000Y-113090000D03*
D30*
X160775000Y-111820000D03*
X160775000Y-110550000D03*
%TD*%
D21*
%TO.C,J5*%
X196206891Y-111043109D03*
D22*
X196206891Y-113543109D03*
X196206891Y-116043109D03*
%TD*%
D28*
%TO.C,REF\u002A\u002A10*%
X190800000Y-83300000D03*
X191393109Y-81868109D03*
X191393109Y-84731891D03*
X192825000Y-81275000D03*
D29*
X192825000Y-83300000D03*
D28*
X192825000Y-85325000D03*
X194256891Y-81868109D03*
X194256891Y-84731891D03*
X194850000Y-83300000D03*
%TD*%
D12*
%TO.C,R9*%
X190206891Y-128155609D03*
X190206891Y-126330609D03*
%TD*%
D18*
%TO.C,R10*%
X135300000Y-71737500D03*
X135300000Y-73562500D03*
%TD*%
%TO.C,R11*%
X138431891Y-71730609D03*
X138431891Y-73555609D03*
%TD*%
D14*
%TO.C,C11*%
X157175000Y-63812500D03*
X157175000Y-62087500D03*
%TD*%
D24*
%TO.C,Out*%
X116731891Y-80843109D03*
%TD*%
D18*
%TO.C,R2*%
X123100000Y-128162500D03*
X123100000Y-126337500D03*
%TD*%
D22*
%TO.C,J6*%
X103031891Y-122343109D03*
X103031891Y-124843109D03*
D32*
X103031891Y-127343109D03*
%TD*%
D20*
%TO.C,C2*%
X174875000Y-126387500D03*
X174875000Y-128112500D03*
%TD*%
D36*
%TO.C,J2*%
X169775000Y-86650000D03*
D35*
X167275000Y-86650000D03*
X164775000Y-86650000D03*
X162275000Y-86650000D03*
%TD*%
D34*
%TO.C,Q2*%
X167975000Y-72250000D03*
D33*
X169245000Y-72250000D03*
X170515000Y-72250000D03*
%TD*%
D18*
%TO.C,R3*%
X126700000Y-128162500D03*
X126700000Y-126337500D03*
%TD*%
%TO.C,R1*%
X163675000Y-126337500D03*
X163675000Y-128162500D03*
%TD*%
D24*
%TO.C,In*%
X169806891Y-130843109D03*
%TD*%
D14*
%TO.C,C11*%
X107200000Y-63812500D03*
X107200000Y-62087500D03*
%TD*%
D10*
%TO.C,D2*%
X170425000Y-109840000D03*
D11*
X170425000Y-117460000D03*
%TD*%
D10*
%TO.C,D3*%
X117800000Y-67460000D03*
D11*
X117800000Y-59840000D03*
%TD*%
D12*
%TO.C,R5*%
X123100000Y-73562500D03*
X123100000Y-71737500D03*
%TD*%
D28*
%TO.C,REF\u002A\u002A5*%
X104325000Y-83300000D03*
X104918109Y-81868109D03*
X104918109Y-84731891D03*
X106350000Y-81275000D03*
D29*
X106350000Y-83300000D03*
D28*
X106350000Y-85325000D03*
X107781891Y-81868109D03*
X107781891Y-84731891D03*
X108375000Y-83300000D03*
%TD*%
D24*
%TO.C,+4.5v*%
X174206891Y-80843109D03*
%TD*%
D29*
%TO.C,9*%
X192825000Y-46800000D03*
%TD*%
D18*
%TO.C,R2*%
X173075000Y-76337500D03*
X173075000Y-78162500D03*
%TD*%
D22*
%TO.C,J4*%
X146231891Y-127343109D03*
X146231891Y-124843109D03*
D21*
X146231891Y-122343109D03*
%TD*%
D12*
%TO.C,R7*%
X178475000Y-123562500D03*
X178475000Y-121737500D03*
%TD*%
D29*
%TO.C,5*%
X106350000Y-46800000D03*
%TD*%
D20*
%TO.C,C7*%
X135300000Y-76387500D03*
X135300000Y-78112500D03*
%TD*%
D12*
%TO.C,R6*%
X115500000Y-73462500D03*
X115500000Y-71637500D03*
%TD*%
D18*
%TO.C,R16*%
X108800000Y-65437500D03*
X108800000Y-67262500D03*
%TD*%
D12*
%TO.C,R15*%
X155475000Y-113862500D03*
X155475000Y-112037500D03*
%TD*%
D24*
%TO.C,Out*%
X166706891Y-80843109D03*
%TD*%
D28*
%TO.C,REF\u002A\u002A*%
X108375000Y-133300000D03*
X107781891Y-134731891D03*
X107781891Y-131868109D03*
X106350000Y-135325000D03*
D29*
X106350000Y-133300000D03*
D28*
X106350000Y-131275000D03*
X104918109Y-134731891D03*
X104918109Y-131868109D03*
X104325000Y-133300000D03*
%TD*%
D20*
%TO.C,C2*%
X124900000Y-128112500D03*
X124900000Y-126387500D03*
%TD*%
D29*
%TO.C,*%
X142850000Y-96800000D03*
%TD*%
D20*
%TO.C,C12*%
X111800000Y-76387500D03*
X111800000Y-78112500D03*
%TD*%
D11*
%TO.C,D1*%
X132800000Y-128960000D03*
D10*
X132800000Y-121340000D03*
%TD*%
D20*
%TO.C,C7*%
X185275000Y-126387500D03*
X185275000Y-128112500D03*
%TD*%
D34*
%TO.C,Q1*%
X120540000Y-76350000D03*
D33*
X119270000Y-76350000D03*
X118000000Y-76350000D03*
%TD*%
D18*
%TO.C,R1*%
X113700000Y-76337500D03*
X113700000Y-78162500D03*
%TD*%
D24*
%TO.C,In*%
X119831891Y-130843109D03*
%TD*%
D29*
%TO.C,7*%
X156325000Y-83300000D03*
%TD*%
D14*
%TO.C,C3*%
X178475000Y-78112500D03*
X178475000Y-76387500D03*
%TD*%
M02*
