M48
; DRILL file {KiCad 8.0.3} date 2025-04-01T20:28:16+0300
; FORMAT={-:-/ absolute / inch / decimal}
; #@! TF.CreationDate,2025-04-01T20:28:16+03:00
; #@! TF.GenerationSoftware,Kicad,Pcbnew,8.0.3
; #@! TF.FileFunction,Plated,1,2,PTH
FMAT,2
INCH
; #@! TA.AperFunction,Plated,PTH,ViaDrill
T1C0.0118
; #@! TA.AperFunction,Plated,PTH,ComponentDrill
T2C0.0197
; #@! TA.AperFunction,Plated,PTH,ComponentDrill
T3C0.0295
; #@! TA.AperFunction,Plated,PTH,ComponentDrill
T4C0.0315
; #@! TA.AperFunction,Plated,PTH,ComponentDrill
T5C0.0374
; #@! TA.AperFunction,Plated,PTH,ComponentDrill
T6C0.0394
; #@! TA.AperFunction,Plated,PTH,ComponentDrill
T7C0.1063
%
G90
G05
T1
X4.2217Y-2.5135
X4.2217Y-4.482
X4.2835Y-2.6476
X4.2835Y-4.6161
X4.4016Y-3.0768
X4.4016Y-5.0453
X4.4764Y-2.5335
X4.4764Y-2.5925
X4.4764Y-4.502
X4.4764Y-4.561
X4.5957Y-3.1828
X4.5957Y-5.1513
X4.8465Y-3.0768
X4.8465Y-5.0453
X4.8819Y-2.687
X4.8819Y-4.6555
X4.891Y-3.1828
X4.891Y-5.1513
X4.9882Y-3.0768
X4.9882Y-5.0453
X5.0591Y-2.8248
X5.0591Y-4.7933
X5.2323Y-2.376
X5.2323Y-4.3445
X5.3792Y-2.4466
X5.3792Y-4.4151
X5.4422Y-2.4033
X5.4422Y-4.3718
X5.4501Y-3.0765
X5.4501Y-5.045
X5.4855Y-2.7773
X5.4855Y-4.7458
X6.1892Y-2.5135
X6.1892Y-4.482
X6.251Y-2.6476
X6.251Y-4.6161
X6.3691Y-3.0768
X6.3691Y-5.0453
X6.4439Y-2.5335
X6.4439Y-2.5925
X6.4439Y-4.502
X6.4439Y-4.561
X6.5633Y-3.1828
X6.5633Y-5.1513
X6.814Y-3.0768
X6.814Y-5.0453
X6.8494Y-2.687
X6.8494Y-4.6555
X6.8585Y-3.1828
X6.8585Y-5.1513
X6.9557Y-3.0768
X6.9557Y-5.0453
X7.0266Y-2.8248
X7.0266Y-4.7933
X7.1998Y-2.376
X7.1998Y-4.3445
X7.3467Y-2.4466
X7.3467Y-4.4151
X7.4097Y-2.4033
X7.4097Y-4.3718
X7.4176Y-3.0765
X7.4176Y-5.045
X7.453Y-2.7773
X7.453Y-4.7458
T2
X4.1073Y-1.8425
X4.1073Y-3.2795
X4.1073Y-3.811
X4.1073Y-5.248
X4.1306Y-1.7861
X4.1306Y-1.8989
X4.1306Y-3.2232
X4.1306Y-3.3359
X4.1306Y-3.7546
X4.1306Y-3.8674
X4.1306Y-5.1917
X4.1306Y-5.3044
X4.187Y-1.7628
X4.187Y-1.9222
X4.187Y-3.1998
X4.187Y-3.3593
X4.187Y-3.7313
X4.187Y-3.8907
X4.187Y-5.1683
X4.187Y-5.3278
X4.2434Y-1.7861
X4.2434Y-1.8989
X4.2434Y-3.2232
X4.2434Y-3.3359
X4.2434Y-3.7546
X4.2434Y-3.8674
X4.2434Y-5.1917
X4.2434Y-5.3044
X4.2667Y-1.8425
X4.2667Y-3.2795
X4.2667Y-3.811
X4.2667Y-5.248
X5.5443Y-1.8425
X5.5443Y-3.2795
X5.5443Y-3.811
X5.5443Y-5.248
X5.5676Y-1.7861
X5.5676Y-1.8989
X5.5676Y-3.2232
X5.5676Y-3.3359
X5.5676Y-3.7546
X5.5676Y-3.8674
X5.5676Y-5.1917
X5.5676Y-5.3044
X5.624Y-1.7628
X5.624Y-1.9222
X5.624Y-3.1998
X5.624Y-3.3593
X5.624Y-3.7313
X5.624Y-3.8907
X5.624Y-5.1683
X5.624Y-5.3278
X5.6804Y-1.7861
X5.6804Y-1.8989
X5.6804Y-3.2232
X5.6804Y-3.3359
X5.6804Y-3.7546
X5.6804Y-3.8674
X5.6804Y-5.1917
X5.6804Y-5.3044
X5.7037Y-1.8425
X5.7037Y-3.2795
X5.7037Y-3.811
X5.7037Y-5.248
X6.0748Y-1.8425
X6.0748Y-3.2795
X6.0748Y-3.811
X6.0748Y-5.248
X6.0982Y-1.7861
X6.0982Y-1.8989
X6.0982Y-3.2232
X6.0982Y-3.3359
X6.0982Y-3.7546
X6.0982Y-3.8674
X6.0982Y-5.1917
X6.0982Y-5.3044
X6.1545Y-1.7628
X6.1545Y-1.9222
X6.1545Y-3.1998
X6.1545Y-3.3593
X6.1545Y-3.7313
X6.1545Y-3.8907
X6.1545Y-5.1683
X6.1545Y-5.3278
X6.2109Y-1.7861
X6.2109Y-1.8989
X6.2109Y-3.2232
X6.2109Y-3.3359
X6.2109Y-3.7546
X6.2109Y-3.8674
X6.2109Y-5.1917
X6.2109Y-5.3044
X6.2343Y-1.8425
X6.2343Y-3.2795
X6.2343Y-3.811
X6.2343Y-5.248
X7.5118Y-1.8425
X7.5118Y-3.2795
X7.5118Y-3.811
X7.5118Y-5.248
X7.5352Y-1.7861
X7.5352Y-1.8989
X7.5352Y-3.2232
X7.5352Y-3.3359
X7.5352Y-3.7546
X7.5352Y-3.8674
X7.5352Y-5.1917
X7.5352Y-5.3044
X7.5915Y-1.7628
X7.5915Y-1.9222
X7.5915Y-3.1998
X7.5915Y-3.3593
X7.5915Y-3.7313
X7.5915Y-3.8907
X7.5915Y-5.1683
X7.5915Y-5.3278
X7.6479Y-1.7861
X7.6479Y-1.8989
X7.6479Y-3.2232
X7.6479Y-3.3359
X7.6479Y-3.7546
X7.6479Y-3.8674
X7.6479Y-5.1917
X7.6479Y-5.3044
X7.6713Y-1.8425
X7.6713Y-3.2795
X7.6713Y-3.811
X7.6713Y-5.248
T3
X4.3622Y-2.3839
X4.3622Y-2.4339
X4.3622Y-2.4839
X4.3622Y-4.3524
X4.3622Y-4.4024
X4.3622Y-4.4524
X4.6457Y-2.8445
X4.6457Y-3.0059
X4.6457Y-4.813
X4.6457Y-4.9744
X4.6957Y-2.8445
X4.6957Y-3.0059
X4.6957Y-4.813
X4.6957Y-4.9744
X4.7457Y-2.8445
X4.7457Y-3.0059
X4.7457Y-4.813
X4.7457Y-4.9744
X6.3297Y-2.3839
X6.3297Y-2.4339
X6.3297Y-2.4839
X6.3297Y-4.3524
X6.3297Y-4.4024
X6.3297Y-4.4524
X6.6132Y-2.8445
X6.6132Y-3.0059
X6.6132Y-4.813
X6.6132Y-4.9744
X6.6632Y-2.8445
X6.6632Y-3.0059
X6.6632Y-4.813
X6.6632Y-4.9744
X6.7132Y-2.8445
X6.7132Y-3.0059
X6.7132Y-4.813
X6.7132Y-4.9744
T4
X4.6378Y-2.3559
X4.6378Y-2.6559
X4.6378Y-4.3244
X4.6378Y-4.6244
X4.7421Y-2.3559
X4.7421Y-2.6559
X4.7421Y-4.3244
X4.7421Y-4.6244
X5.2283Y-2.8087
X5.2283Y-3.1087
X5.2283Y-4.7772
X5.2283Y-5.0772
X6.6053Y-2.3559
X6.6053Y-2.6559
X6.6053Y-4.3244
X6.6053Y-4.6244
X6.7096Y-2.3559
X6.7096Y-2.6559
X6.7096Y-4.3244
X6.7096Y-4.6244
X7.1959Y-2.8087
X7.1959Y-3.1087
X7.1959Y-4.7772
X7.1959Y-5.0772
T5
X4.0564Y-2.8482
X4.0564Y-2.9466
X4.0564Y-3.045
X4.0564Y-4.8167
X4.0564Y-4.9151
X4.0564Y-5.0135
X4.4213Y-3.4114
X4.4213Y-5.3799
X4.5197Y-3.4114
X4.5197Y-5.3799
X4.6181Y-3.4114
X4.6181Y-5.3799
X4.7165Y-3.4114
X4.7165Y-5.3799
X5.7572Y-2.4033
X5.7572Y-2.5017
X5.7572Y-2.6001
X5.7572Y-2.8482
X5.7572Y-2.9466
X5.7572Y-3.045
X5.7572Y-4.3718
X5.7572Y-4.4702
X5.7572Y-4.5686
X5.7572Y-4.8167
X5.7572Y-4.9151
X5.7572Y-5.0135
X6.0239Y-2.8482
X6.0239Y-2.9466
X6.0239Y-3.045
X6.0239Y-4.8167
X6.0239Y-4.9151
X6.0239Y-5.0135
X6.3888Y-3.4114
X6.3888Y-5.3799
X6.4872Y-3.4114
X6.4872Y-5.3799
X6.5856Y-3.4114
X6.5856Y-5.3799
X6.6841Y-3.4114
X6.6841Y-5.3799
X7.7247Y-2.4033
X7.7247Y-2.5017
X7.7247Y-2.6001
X7.7247Y-2.8482
X7.7247Y-2.9466
X7.7247Y-3.045
X7.7247Y-4.3718
X7.7247Y-4.4702
X7.7247Y-4.5686
X7.7247Y-4.8167
X7.7247Y-4.9151
X7.7247Y-5.0135
T6
X5.2913Y-3.4114
X5.2913Y-5.3799
X5.3898Y-3.4114
X5.3898Y-5.3799
X7.2589Y-3.4114
X7.2589Y-5.3799
X7.3573Y-3.4114
X7.3573Y-5.3799
T7
X4.187Y-1.8425
X4.187Y-1.8425
X4.187Y-3.2795
X4.187Y-3.2795
X4.187Y-3.811
X4.187Y-3.811
X4.187Y-5.248
X4.187Y-5.248
X5.624Y-1.8425
X5.624Y-1.8425
X5.624Y-3.2795
X5.624Y-3.811
X5.624Y-3.811
X5.624Y-5.248
X6.1545Y-1.8425
X6.1545Y-1.8425
X6.1545Y-3.2795
X6.1545Y-3.2795
X6.1545Y-3.811
X6.1545Y-3.811
X6.1545Y-5.248
X6.1545Y-5.248
X7.5915Y-1.8425
X7.5915Y-1.8425
X7.5915Y-3.2795
X7.5915Y-3.811
X7.5915Y-3.811
X7.5915Y-5.248
T6
G00X4.6969Y-2.0039
M15
G01X4.6969Y-2.0827
M16
G05
G00X4.7205Y-3.9724
M15
G01X4.7205Y-4.0512
M16
G05
G00X4.9213Y-1.9252
M15
G01X4.8425Y-1.9252
M16
G05
G00X4.9311Y-2.1693
M15
G01X4.8327Y-2.1693
M16
G05
G00X4.9449Y-3.8937
M15
G01X4.8661Y-3.8937
M16
G05
G00X4.9547Y-4.1378
M15
G01X4.8563Y-4.1378
M16
G05
G00X6.688Y-2.0039
M15
G01X6.688Y-2.0827
M16
G05
G00X6.689Y-3.9724
M15
G01X6.689Y-4.0512
M16
G05
G00X6.9124Y-1.9252
M15
G01X6.8337Y-1.9252
M16
G05
G00X6.9222Y-2.1693
M15
G01X6.8238Y-2.1693
M16
G05
G00X6.9134Y-3.8937
M15
G01X6.8346Y-3.8937
M16
G05
G00X6.9232Y-4.1378
M15
G01X6.8248Y-4.1378
M16
G05
M30
